<svg xmlns="http://www.w3.org/2000/svg" width="260" height="237" viewBox="0 0 260 237" fill="none">
  <path d="M125.272 184.5C174.014 184.5 213.529 144.984 213.529 96.0689C213.529 47.1535 173.84 7.63818 125.272 7.63818C76.531 7.63818 37.0157 47.1535 37.0157 96.0689C37.0157 144.984 76.531 184.5 125.272 184.5Z" fill="#EAEEF9"/>
  <path d="M207.784 38.1014C211.726 38.1014 214.922 34.906 214.922 30.9643C214.922 27.0225 211.726 23.8271 207.784 23.8271C203.843 23.8271 200.647 27.0225 200.647 30.9643C200.647 34.906 203.843 38.1014 207.784 38.1014Z" fill="#E7EBF6"/>
  <path d="M218.229 10.2492C220.921 10.2492 223.103 8.06702 223.103 5.37511C223.103 2.6832 220.921 0.500977 218.229 0.500977C215.537 0.500977 213.355 2.6832 213.355 5.37511C213.355 8.06702 215.537 10.2492 218.229 10.2492Z" fill="#E7EBF6"/>
  <path d="M41.7158 37.927C44.4077 37.927 46.5899 35.7448 46.5899 33.0528C46.5899 30.3609 44.4077 28.1787 41.7158 28.1787C39.0239 28.1787 36.8417 30.3609 36.8417 33.0528C36.8417 35.7448 39.0239 37.927 41.7158 37.927Z" fill="#E7EBF6"/>
  <path d="M11.9488 131.929C16.948 131.929 21.0007 127.876 21.0007 122.877C21.0007 117.877 16.948 113.825 11.9488 113.825C6.94952 113.825 2.89682 117.877 2.89682 122.877C2.89682 127.876 6.94952 131.929 11.9488 131.929Z" fill="#E7EBF6"/>
  <g filter="url(#filter0_d_2193_39056)">
    <path d="M150.862 49.0682L177.495 144.81C178.366 148.118 176.451 151.425 173.143 152.295L79.3163 177.188C76.0088 178.059 72.7014 176.144 71.831 172.836L39.1047 49.2423C38.2343 45.9348 40.1491 42.6274 43.4566 41.757L111.346 23.8271L150.862 49.0682Z" fill="url(#paint0_linear_2193_39056)"/>
  </g>
  <path d="M149.469 109.646L98.8128 123.05L93.2424 124.443L76.357 128.969C75.6607 129.143 75.1384 130.013 75.4866 130.883C75.6607 131.754 76.5311 132.276 77.2274 132.102L94.1127 127.576L99.6832 126.183L150.339 112.78C151.036 112.605 151.558 111.735 151.21 110.865C151.036 109.994 150.165 109.472 149.469 109.646Z" fill="#D5DDEA"/>
  <path d="M146.161 97.8093L127.361 102.683L120.92 104.424L73.3977 117.132C72.7014 117.306 72.1791 118.176 72.5273 119.047C72.7014 119.917 73.5717 120.439 74.268 120.265L121.965 107.558L128.406 105.817L147.206 100.943C147.902 100.769 148.424 99.8982 148.076 99.0278C147.728 98.3315 146.858 97.6352 146.161 97.8093Z" fill="#D5DDEA"/>
  <path d="M143.376 85.7984L138.502 87.0169L133.628 88.2355L70.0902 105.121C69.3939 105.295 68.8716 106.165 69.2198 107.036C69.3939 107.906 70.2642 108.428 70.9605 108.254L134.498 91.3688L139.895 89.9762L144.247 88.7577C144.943 88.5836 145.465 87.7132 145.117 86.8428C144.943 86.1465 144.247 85.6243 143.376 85.7984Z" fill="#D5DDEA"/>
  <path d="M113.957 147.421L110.476 148.291C109.78 148.465 108.909 147.943 108.735 147.072C108.561 146.202 108.909 145.332 109.606 145.158L113.087 144.287C113.783 144.113 114.654 144.635 114.828 145.506C115.002 146.55 114.654 147.247 113.957 147.421Z" fill="#CED7E2"/>
  <path d="M103.339 150.206L83.32 155.429C82.6237 155.603 81.7533 155.08 81.5792 154.21C81.4051 153.34 81.7533 152.469 82.4496 152.295L102.468 147.073C103.165 146.899 104.035 147.421 104.209 148.291C104.557 149.162 104.209 150.032 103.339 150.206Z" fill="#D5DDEA"/>
  <path d="M140.939 73.7868L125.098 77.9646L121.269 79.0091L67.131 93.2833C66.4347 93.4574 65.9124 94.3278 66.2606 95.1982C66.4347 96.0686 67.305 96.5908 68.0013 96.4167L121.965 82.3166L125.795 81.2721L141.461 77.0943C142.332 76.9202 142.68 76.0498 142.506 75.0054C142.506 74.309 141.636 73.6127 140.939 73.7868Z" fill="#D5DDEA"/>
  <path d="M103.513 47.5013L58.6012 59.3385C57.5567 59.6866 56.5123 58.9903 56.1641 57.9459C55.816 56.9014 56.5123 55.857 57.5567 55.5088L102.468 43.6716C103.513 43.3235 104.557 44.0198 104.905 45.0642C105.254 46.1087 104.557 47.1531 103.513 47.5013Z" fill="#D5DDEA"/>
  <path d="M78.794 65.6053L61.5605 70.1313C60.516 70.4794 59.4716 69.7831 59.1234 68.7387C58.7753 67.6942 59.4716 66.6498 60.516 66.3016L77.5755 61.7756C78.62 61.4275 79.6644 62.1238 80.0126 63.1682C80.3607 64.2127 79.6644 65.2571 78.794 65.6053Z" fill="#D5DDEA"/>
  <path d="M111.346 23.8271L118.309 50.2867C119.354 53.9423 123.357 56.2053 127.013 55.1609L150.862 49.0682" fill="#D5DDEA"/>
  <g filter="url(#filter1_d_2193_39056)">
    <path d="M221.188 76.0502L205.173 174.229C204.651 177.537 201.344 179.8 198.036 179.103L102.642 162.392C99.335 161.87 97.072 158.562 97.5942 155.255L119.702 29.3978C120.224 26.0903 123.532 23.8273 126.839 24.5236L196.121 36.709L221.188 76.0502Z" fill="url(#paint1_linear_2193_39056)"/>
  </g>
  <path d="M194.555 130.536L143.028 121.484L137.458 120.44L120.224 117.48C119.528 117.306 118.657 118.003 118.657 118.873C118.483 119.743 119.006 120.614 119.702 120.788L136.935 123.747L142.506 124.792L194.032 133.844C194.729 134.018 195.599 133.321 195.599 132.451C195.773 131.581 195.425 130.71 194.555 130.536Z" fill="#CED7E2"/>
  <path d="M196.644 118.525L177.495 115.218L171.054 113.999L122.487 105.469C121.791 105.295 120.92 105.991 120.92 106.862C120.746 107.732 121.269 108.603 121.965 108.777L170.532 117.306L176.973 118.525L196.121 121.832C196.818 122.006 197.688 121.31 197.688 120.44C197.862 119.569 197.34 118.699 196.644 118.525Z" fill="#CED7E2"/>
  <path d="M199.081 106.339L194.032 105.469L188.984 104.599L124.228 93.2837C123.532 93.1096 122.661 93.8059 122.661 94.6763C122.487 95.5467 123.009 96.4171 123.706 96.5911L188.462 107.906L194.032 108.951L198.384 109.647C199.081 109.821 199.951 109.125 199.951 108.254C200.299 107.384 199.951 106.513 199.081 106.339Z" fill="#D5DDEA"/>
  <path d="M146.51 150.032L143.028 149.51C142.332 149.336 141.81 148.466 141.984 147.595C142.158 146.725 142.854 146.029 143.55 146.203L147.032 146.725C147.728 146.899 148.25 147.769 148.076 148.64C147.902 149.684 147.206 150.032 146.51 150.032Z" fill="#CED7E2"/>
  <path d="M135.891 148.118L115.524 144.636C114.828 144.462 114.306 143.592 114.48 142.721C114.654 141.851 115.35 141.155 116.046 141.329L136.413 144.81C137.11 144.984 137.632 145.855 137.458 146.725C137.284 147.769 136.587 148.292 135.891 148.118Z" fill="#E3EAF2"/>
  <path d="M201.866 94.5027L185.677 91.7175L181.673 91.0212L126.491 81.2729C125.795 81.0989 124.924 81.7952 124.924 82.6656C124.75 83.5359 125.272 84.4063 125.969 84.5804L181.151 94.3287L185.155 95.025L201.17 97.8102C202.04 97.9843 202.736 97.2879 202.91 96.4176C203.084 95.5472 202.562 94.6768 201.866 94.5027Z" fill="#D5DDEA"/>
  <path d="M179.062 54.9869L133.28 46.9794C132.235 46.8053 131.539 45.7608 131.713 44.7164C131.887 43.6719 132.932 42.9756 133.976 43.1497L179.758 51.1572C180.803 51.3313 181.499 52.3757 181.325 53.4202C181.151 54.2906 180.106 55.161 179.062 54.9869Z" fill="#D5DDEA"/>
  <path d="M148.947 60.9052L131.365 57.7719C130.32 57.5978 129.624 56.5533 129.798 55.5089C129.972 54.4644 131.017 53.7681 132.061 53.9422L149.469 57.0756C150.513 57.2496 151.21 58.2941 151.036 59.3385C150.861 60.383 149.817 61.0793 148.947 60.9052Z" fill="#D5DDEA"/>
  <path d="M195.947 36.7085L191.247 63.6903C190.551 67.52 193.336 71.1756 197.166 71.8719L221.188 76.0497" fill="#D5DDEA"/>
  <path d="M155.562 165.003C177.001 165.003 194.381 147.623 194.381 126.184C194.381 104.745 177.001 87.3647 155.562 87.3647C134.123 87.3647 116.743 104.745 116.743 126.184C116.743 147.623 134.123 165.003 155.562 165.003Z" fill="white"/>
  <path d="M151.906 132.451C151.732 131.755 151.732 131.058 151.732 130.188C151.732 127.229 152.95 124.617 156.084 122.354L158.695 120.44C160.262 119.221 160.958 117.828 160.958 116.088C160.958 113.651 159.217 111.214 155.562 111.214C151.732 111.214 149.991 114.347 149.991 117.306C149.991 118.002 149.991 118.525 150.165 119.047L143.202 118.873C143.028 118.177 142.854 117.306 142.854 116.436C142.854 110.517 147.206 104.947 155.388 104.947C163.743 104.947 168.269 110.343 168.269 115.739C168.269 120.091 166.006 123.051 162.873 125.314L160.61 126.88C158.695 128.273 157.651 130.014 157.651 132.103V132.451H151.906ZM154.865 135.932C157.302 135.932 159.217 137.847 159.217 140.284C159.217 142.721 157.302 144.636 154.865 144.636C152.428 144.636 150.513 142.721 150.513 140.284C150.688 138.021 152.428 135.932 154.865 135.932Z" fill="#989FB0"/>
  <defs>
    <filter id="filter0_d_2193_39056" x="0.598263" y="4.67877" width="215.403" height="230.164" filterUnits="userSpaceOnUse" color-interpolation-filters="sRGB">
      <feFlood flood-opacity="0" result="BackgroundImageFix"/>
      <feColorMatrix in="SourceAlpha" type="matrix" values="0 0 0 0 0 0 0 0 0 0 0 0 0 0 0 0 0 0 127 0" result="hardAlpha"/>
      <feOffset dy="19.1484"/>
      <feGaussianBlur stdDeviation="19.1484"/>
      <feColorMatrix type="matrix" values="0 0 0 0 0.397708 0 0 0 0 0.47749 0 0 0 0 0.575 0 0 0 0.27 0"/>
      <feBlend mode="normal" in2="BackgroundImageFix" result="effect1_dropShadow_2193_39056"/>
      <feBlend mode="normal" in="SourceGraphic" in2="effect1_dropShadow_2193_39056" result="shape"/>
    </filter>
    <filter id="filter1_d_2193_39056" x="59.2225" y="5.24909" width="200.263" height="231.426" filterUnits="userSpaceOnUse" color-interpolation-filters="sRGB">
      <feFlood flood-opacity="0" result="BackgroundImageFix"/>
      <feColorMatrix in="SourceAlpha" type="matrix" values="0 0 0 0 0 0 0 0 0 0 0 0 0 0 0 0 0 0 127 0" result="hardAlpha"/>
      <feOffset dy="19.1484"/>
      <feGaussianBlur stdDeviation="19.1484"/>
      <feColorMatrix type="matrix" values="0 0 0 0 0.397708 0 0 0 0 0.47749 0 0 0 0 0.575 0 0 0 0.27 0"/>
      <feBlend mode="normal" in2="BackgroundImageFix" result="effect1_dropShadow_2193_39056"/>
      <feBlend mode="normal" in="SourceGraphic" in2="effect1_dropShadow_2193_39056" result="shape"/>
    </filter>
    <linearGradient id="paint0_linear_2193_39056" x1="108.255" y1="20.2749" x2="108.255" y2="179.053" gradientUnits="userSpaceOnUse">
      <stop stop-color="#FDFEFF"/>
      <stop offset="0.9964" stop-color="#ECF0F5"/>
    </linearGradient>
    <linearGradient id="paint1_linear_2193_39056" x1="159.313" y1="20.816" x2="159.313" y2="180.899" gradientUnits="userSpaceOnUse">
      <stop stop-color="#FDFEFF"/>
      <stop offset="0.9964" stop-color="#ECF0F5"/>
    </linearGradient>
  </defs>
</svg>